<?xml version="1.0" encoding="UTF-8"?>
<svg version="1.1" xmlns="http://www.w3.org/2000/svg" width="286" height="93">
<path d="M0 0 C94.38 0 188.76 0 286 0 C286 30.69 286 61.38 286 93 C191.62 93 97.24 93 0 93 C0 62.31 0 31.62 0 0 Z " fill="#FDFDFE" transform="translate(0,0)"/>
<path d="M0 0 C4.95524931 3.33720872 8.90331154 7.28890949 11 13 C11.4626821 16.83029595 11.3802784 20.5867712 11.25 24.4375 C11.23195312 25.45521484 11.21390625 26.47292969 11.1953125 27.52148438 C11.14847997 30.01531655 11.08291427 32.50715047 11 35 C10.67 35 10.34 35 10 35 C10 33.02 10 31.04 10 29 C-0.8021863 37.43656873 -0.8021863 37.43656873 -9 48 C-3.67829506 48.29562367 -3.67829506 48.29562367 1 46 C1 46.66 1 47.32 1 48 C3.64 48 6.28 48 9 48 C9.33 45.03 9.66 42.06 10 39 C9.01 38.505 9.01 38.505 8 38 C8.99 37.34 9.98 36.68 11 36 C11.05423638 37.91635217 11.09289963 39.83314925 11.125 41.75 C11.14820313 42.81734375 11.17140625 43.8846875 11.1953125 44.984375 C11.00487687 47.92470106 10.52670104 49.52361878 9 52 C8.34 52 7.68 52 7 52 C7 51.34 7 50.68 7 50 C-5.21 50.33 -17.42 50.66 -30 51 C-29.34 52.32 -28.68 53.64 -28 55 C-13.15 55.495 -13.15 55.495 2 56 C2 56.33 2 56.66 2 57 C-6.91 57 -15.82 57 -25 57 C-19.6716424 62.3283576 -14.22106075 62.46718387 -7 63 C-7 63.66 -7 64.32 -7 65 C-13.92751763 65.51956382 -19.49390398 65.7917227 -25.25 61.55859375 C-29.4945728 57.7782711 -33.6511883 53.66500913 -35 48 C-35.14254038 44.99137977 -35.11799891 42.00897214 -35 39 C-32.4345406 41.5654594 -32.45953913 43.47686668 -32 47 C-30.29278846 47.19745329 -28.58413679 47.38247093 -26.875 47.5625 C-25.92367187 47.66691406 -24.97234375 47.77132812 -23.9921875 47.87890625 C-20.84501366 48.00627229 -18.08111941 47.61713816 -15 47 C-15.64066406 46.3709375 -16.28132813 45.741875 -16.94140625 45.09375 C-21.70544346 40.37941213 -26.32193368 35.63701674 -30.625 30.49609375 C-31.94927544 28.87706069 -31.94927544 28.87706069 -34 28 C-34 30.64 -34 33.28 -34 36 C-34.33 36 -34.66 36 -35 36 C-35.147077 32.52128965 -35.23465255 29.04339333 -35.3125 25.5625 C-35.35439453 24.58861328 -35.39628906 23.61472656 -35.43945312 22.61132812 C-35.55793136 15.52632973 -34.25718298 10.71595411 -30 5 C-21.69169301 -3.54433844 -10.59172879 -5.74979563 0 0 Z " fill="#8DBE9F" transform="translate(58,13)"/>
<path d="M0 0 C5.3325287 2.16916422 8.04837985 4.40966587 10.34375 9.72265625 C11.90360315 15.13571806 11.79039691 20.61055051 9.75 25.875 C7.40587916 30.06093007 5.59550488 32.46816504 1 34 C-3.27381146 34.4161764 -6.90412539 34.47646722 -10.875 32.75 C-14.06450003 30.12335292 -15.69239865 27.92280404 -17 24 C-18.16761509 11.407493 -18.16761509 11.407493 -15.80078125 6.52734375 C-11.33983186 1.23488238 -6.97480058 -0.70930175 0 0 Z " fill="#315462" transform="translate(98,27)"/>
<path d="M0 0 C0.99 0.33 1.98 0.66 3 1 C2.773125 1.59296875 2.54625 2.1859375 2.3125 2.796875 C1.73514524 5.03377894 1.73514524 5.03377894 3.1875 6.640625 C3.785625 7.17171875 4.38375 7.7028125 5 8.25 C7.73815003 10.80158269 10.33156468 13.38273733 12.8125 16.1875 C13.37582031 16.82042969 13.93914063 17.45335938 14.51953125 18.10546875 C15.99256907 19.99049077 17.01244381 21.82737639 18 24 C18.66 24 19.32 24 20 24 C20 22.02 20 20.04 20 18 C20.33 18 20.66 18 21 18 C21 19.98 21 21.96 21 24 C23.31 22.35 25.62 20.7 28 19 C28 19.99 28 20.98 28 22 C27.175 22.7425 26.35 23.485 25.5 24.25 C22.33108582 27.7358056 22.78585535 29.43871895 23 34 C26.17048898 31.00418127 29.30648954 27.974513 32.4375 24.9375 C33.33533203 24.08994141 34.23316406 23.24238281 35.15820312 22.36914062 C40.54451082 17.44931312 40.54451082 17.44931312 43.09765625 10.87890625 C43.06542969 9.92886719 43.03320312 8.97882812 43 8 C42.34 7.67 41.68 7.34 41 7 C41.99 6.67 42.98 6.34 44 6 C44 12.27 44 18.54 44 25 C43.67 25 43.34 25 43 25 C43 23.02 43 21.04 43 19 C32.1978137 27.43656873 32.1978137 27.43656873 24 38 C29.32170494 38.29562367 29.32170494 38.29562367 34 36 C34 36.66 34 37.32 34 38 C36.64 38 39.28 38 42 38 C42.33 35.03 42.66 32.06 43 29 C42.34 28.67 41.68 28.34 41 28 C41.99 27.34 42.98 26.68 44 26 C44.05423638 27.91635217 44.09289963 29.83314925 44.125 31.75 C44.14820313 32.81734375 44.17140625 33.8846875 44.1953125 34.984375 C44.00487687 37.92470106 43.52670104 39.52361878 42 42 C41.34 42 40.68 42 40 42 C40 41.34 40 40.68 40 40 C27.79 40.33 15.58 40.66 3 41 C3.66 42.32 4.32 43.64 5 45 C19.85 45.495 19.85 45.495 35 46 C35 46.33 35 46.66 35 47 C26.09 47 17.18 47 8 47 C13.3283576 52.3283576 18.77893925 52.46718387 26 53 C26 53.66 26 54.32 26 55 C19.07248237 55.51956382 13.50609602 55.7917227 7.75 51.55859375 C3.5054272 47.7782711 -0.6511883 43.66500913 -2 38 C-2.14254038 34.99137977 -2.11799891 32.00897214 -2 29 C0.5654594 31.5654594 0.54046087 33.47686668 1 37 C2.70721154 37.19745329 4.41586321 37.38247093 6.125 37.5625 C7.07632813 37.66691406 8.02765625 37.77132812 9.0078125 37.87890625 C12.15498634 38.00627229 14.91888059 37.61713816 18 37 C17.35933594 36.3709375 16.71867187 35.741875 16.05859375 35.09375 C11.29455654 30.37941213 6.67806632 25.63701674 2.375 20.49609375 C1.05072456 18.87706069 1.05072456 18.87706069 -1 18 C-1 20.64 -1 23.28 -1 26 C-1.33 26 -1.66 26 -2 26 C-2.05814085 22.41673499 -2.09364357 18.83359162 -2.125 15.25 C-2.14175781 14.23421875 -2.15851562 13.2184375 -2.17578125 12.171875 C-2.18222656 11.1921875 -2.18867188 10.2125 -2.1953125 9.203125 C-2.20578613 8.30239258 -2.21625977 7.40166016 -2.22705078 6.47363281 C-1.98721676 3.86073144 -1.32312064 2.24335334 0 0 Z " fill="#85BA99" transform="translate(25,23)"/>
<path d="M0 0 C0.99 0 1.98 0 3 0 C5 0 7 0 9 0 C9.14886815 4.03814395 9.25745089 8.07521605 9.32958984 12.11547852 C9.3596733 13.4881575 9.40055334 14.86064563 9.45263672 16.23266602 C9.86894811 27.48531813 9.86894811 27.48531813 7.83764648 31.02612305 C4.67332392 33.91028992 1.47275756 34.61737167 -2.6875 34.4375 C-4.08548828 34.40462891 -4.08548828 34.40462891 -5.51171875 34.37109375 C-8 34 -8 34 -11 32 C-10.67 30.68 -10.34 29.36 -10 28 C-7 28 -7 28 -4 28.625 C-0.82297795 29.3540441 -0.82297795 29.3540441 2 27 C2 26.01 2 25.02 2 24 C1.34 24.33 0.68 24.66 0 25 C-3.3125 25.375 -3.3125 25.375 -7 25 C-10.36298892 22.22187872 -12.79634542 20.04322297 -13.23828125 15.609375 C-13.40017902 9.3720503 -13.22288753 5.71969783 -9 1 C-6.03609162 -0.48195419 -3.27556022 -0.05746597 0 0 Z " fill="#2D5160" transform="translate(142,36)"/>
<path d="M0 0 C2.31 0 4.62 0 7 0 C7.33 5.61 7.66 11.22 8 17 C8.825 15.845 9.65 14.69 10.5 13.5 C12.36046719 11.28791341 13.32408821 10.14414606 16.1796875 9.53515625 C18.375 9.5625 18.375 9.5625 22 10 C21.59007812 10.54269531 21.18015625 11.08539063 20.7578125 11.64453125 C20.21898437 12.35996094 19.68015625 13.07539062 19.125 13.8125 C18.59132813 14.52019531 18.05765625 15.22789063 17.5078125 15.95703125 C16.29185219 17.60456297 15.13583859 19.29624211 14 21 C14.6496875 21.92683594 15.299375 22.85367188 15.96875 23.80859375 C16.81262221 25.01814391 17.65636558 26.22778397 18.5 27.4375 C18.92925781 28.04916016 19.35851562 28.66082031 19.80078125 29.29101562 C23 33.88671875 23 33.88671875 23 35 C17.79636835 35.70557717 17.79636835 35.70557717 15 35 C13.26225913 33.03372249 12.17283227 31.09633353 11.0078125 28.75 C10.67523438 28.1725 10.34265625 27.595 10 27 C9.34 27 8.68 27 8 27 C7.67 29.64 7.34 32.28 7 35 C4.69 35 2.38 35 0 35 C0 23.45 0 11.9 0 0 Z " fill="#325563" transform="translate(244,26)"/>
<path d="M0 0 C2.73046875 1.359375 2.73046875 1.359375 5 4 C5.76118629 7.57704325 5.79064322 11.10234689 5.8125 14.75 C5.83763672 15.73355469 5.86277344 16.71710937 5.88867188 17.73046875 C5.94749661 20.15404766 5.98380919 22.57582278 6 25 C0.25 25.125 0.25 25.125 -2 24 C-2.66 24.33 -3.32 24.66 -4 25 C-7.50360855 25.25952656 -10.1641151 25.34292714 -13.4375 24 C-15.46206034 21.40856276 -15.6286357 19.1847401 -15.4375 15.94140625 C-15 14 -15 14 -13.0625 11.5 C-8.94895266 9.4852013 -5.49692378 9.6473001 -1 10 C-1.33 8.68 -1.66 7.36 -2 6 C-4.97 5.505 -4.97 5.505 -8 5 C-8.33 5.99 -8.66 6.98 -9 8 C-10.98 8 -12.96 8 -15 8 C-14.69025617 5.10905762 -13.95829554 3.95308249 -12 1.75 C-8.04747132 -0.55564173 -4.47982417 -1.04324673 0 0 Z " fill="#2F5361" transform="translate(171,36)"/>
<path d="M0 0 C12.54 0 25.08 0 38 0 C38 0.66 38 1.32 38 2 C38.66 2 39.32 2 40 2 C37.90827557 7.13423269 33.65130641 11.09293349 29 14 C26.25 14.6875 26.25 14.6875 24 15 C24 14.34 24 13.68 24 13 C23.3709375 13.04640625 22.741875 13.0928125 22.09375 13.140625 C15.51470205 13.41805473 11.66070368 12.35449107 6 9 C6 8.34 6 7.68 6 7 C5.38125 6.773125 4.7625 6.54625 4.125 6.3125 C2 5 2 5 0 0 Z " fill="#94C2A5" transform="translate(27,63)"/>
<path d="M0 0 C3.33333333 0 6.66666667 0 10 0 C11.134375 -0.061875 12.26875 -0.12375 13.4375 -0.1875 C17.29783365 0.01567546 18.33475613 0.32644982 21 3 C21.45410156 5.36010742 21.45410156 5.36010742 21.390625 8.10546875 C21.37128906 9.57983398 21.37128906 9.57983398 21.3515625 11.08398438 C21.31804687 12.10814453 21.28453125 13.13230469 21.25 14.1875 C21.23195312 15.22326172 21.21390625 16.25902344 21.1953125 17.32617188 C21.14814437 19.88504284 21.08234057 22.44205842 21 25 C19.02 25 17.04 25 15 25 C15 18.73 15 12.46 15 6 C12.69 5.67 10.38 5.34 8 5 C7.67 11.6 7.34 18.2 7 25 C4.69 25 2.38 25 0 25 C0 16.75 0 8.5 0 0 Z " fill="#305462" transform="translate(181,36)"/>
<path d="M0 0 C2.64750342 1.39049549 3.92936673 2.7223034 6 5 C6 6.32 6 7.64 6 9 C3.125 9.1875 3.125 9.1875 0 9 C-0.66 8.01 -1.32 7.02 -2 6 C-5.29075996 6.37904208 -5.29075996 6.37904208 -8 8 C-8.46331437 13.87646031 -8.46331437 13.87646031 -6 19 C-3.41619823 19.25030977 -3.41619823 19.25030977 -1 19 C-0.67 18.01 -0.34 17.02 0 16 C1.98 16 3.96 16 6 16 C5.76481427 19.52778597 5.63136193 21.40809819 3 23.875 C-1.09033607 25.40887603 -4.69004295 25.85106036 -9 25 C-12.28175318 22.47031526 -13.69243777 20.92268669 -15 17 C-15.494097 12.89899494 -15.95235971 8.7767905 -13.953125 5.046875 C-9.94589103 0.1910503 -6.18075593 -1.03012599 0 0 Z " fill="#2F5261" transform="translate(234,36)"/>
<path d="M0 0 C3.5 0.4375 3.5 0.4375 5.375 1.75 C8.33501396 6.19002094 7.92095955 11.32244429 7.5 16.4375 C6.4375 20 6.4375 20 4.5 22.4375 C1.0625 23.625 1.0625 23.625 -2.5 23.4375 C-5.41401978 20.68940306 -6.41584504 19.01598252 -6.99609375 15.02734375 C-6.97675781 13.82207031 -6.95742187 12.61679687 -6.9375 11.375 C-6.93621094 10.16714844 -6.93492188 8.95929687 -6.93359375 7.71484375 C-6.26197115 2.63834497 -5.17741335 0.64717667 0 0 Z " fill="#F9FAFA" transform="translate(94.5,32.5625)"/>
<path d="M0 0 C0.33 0 0.66 0 1 0 C1.02578125 0.77085938 1.0515625 1.54171875 1.078125 2.3359375 C1.13484375 3.33882812 1.1915625 4.34171875 1.25 5.375 C1.29640625 6.37273438 1.3428125 7.37046875 1.390625 8.3984375 C1.59171875 9.25695313 1.7928125 10.11546875 2 11 C3.32424999 11.68453209 4.65924522 12.3483875 6 13 C7.81518555 14.6640625 7.81518555 14.6640625 9.63671875 16.625 C10.29607422 17.33140625 10.95542969 18.0378125 11.63476562 18.765625 C12.65086914 19.87164062 12.65086914 19.87164062 13.6875 21 C14.37650391 21.73734375 15.06550781 22.4746875 15.77539062 23.234375 C20.85344483 28.70688966 20.85344483 28.70688966 22 31 C15.78675502 31.73030908 10.15901243 32.23180249 4 31 C3.34 28.69 2.68 26.38 2 24 C1.34 25.32 0.68 26.64 0 28 C0 18.76 0 9.52 0 0 Z " fill="#9FC8AF" transform="translate(22,30)"/>
<path d="M0 0 C0.33 0 0.66 0 1 0 C1 9.57 1 19.14 1 29 C0.67 29 0.34 29 0 29 C-0.33 26.36 -0.66 23.72 -1 21 C-1 21.66 -1 22.32 -1 23 C-1.15594965 24.54278761 -1.32392903 26.08437905 -1.5 27.625 C-1.63921875 28.85089844 -1.63921875 28.85089844 -1.78125 30.1015625 C-1.8534375 30.72804688 -1.925625 31.35453125 -2 32 C-5.33333333 32 -8.66666667 32 -12 32 C-12.99 32.495 -12.99 32.495 -14 33 C-16.00800456 32.71887936 -18.01014051 32.38932033 -20 32 C-18.61314777 28.8804428 -16.99810509 26.74144201 -14.59375 24.328125 C-13.93246094 23.66425781 -13.27117188 23.00039063 -12.58984375 22.31640625 C-11.90019531 21.63449219 -11.21054687 20.95257813 -10.5 20.25 C-9.81035156 19.55261719 -9.12070312 18.85523437 -8.41015625 18.13671875 C-7.74886719 17.47800781 -7.08757813 16.81929687 -6.40625 16.140625 C-5.80103516 15.53766602 -5.19582031 14.93470703 -4.57226562 14.31347656 C-3 13 -3 13 -1 13 C-0.67 8.71 -0.34 4.42 0 0 Z " fill="#9CC7AC" transform="translate(69,29)"/>
<path d="M0 0 C4.66666667 0 9.33333333 0 14 0 C14 1.98 14 3.96 14 6 C11.69 6.33 9.38 6.66 7 7 C7 12.94 7 18.88 7 25 C4.69 25 2.38 25 0 25 C0 16.75 0 8.5 0 0 Z " fill="#365866" transform="translate(113,36)"/>
<path d="M0 0 C12.54 0 25.08 0 38 0 C37.34 1.65 36.68 3.3 36 5 C24.78 5 13.56 5 2 5 C1.34 3.35 0.68 1.7 0 0 Z " fill="#FEFEFE" transform="translate(27,63)"/>
<path d="M0 0 C1.98 0 3.96 0 6 0 C6 8.25 6 16.5 6 25 C4.02 25 2.04 25 0 25 C0 16.75 0 8.5 0 0 Z " fill="#2A4E5D" transform="translate(208,36)"/>
<path d="M0 0 C0.33 0 0.66 0 1 0 C1.58611676 2.86071559 1.74948307 4.2237458 1 7 C-1.76883442 10.70020445 -5.07656895 13.77836896 -8.4375 16.9375 C-9.33533203 17.81212891 -10.23316406 18.68675781 -11.15820312 19.58789062 C-17.79055669 26 -17.79055669 26 -19 26 C-19.51552823 22.84954972 -19.73454833 21.04964205 -19 18 C-16.40101526 14.54647379 -13.26435617 11.81531799 -10 9 C-9.23816406 8.32195313 -8.47632813 7.64390625 -7.69140625 6.9453125 C-6.34674635 5.75609035 -4.99359254 4.57634272 -3.62890625 3.41015625 C-2.37392427 2.32370902 -1.17374345 1.17374345 0 0 Z " fill="#FAFCFB" transform="translate(66,32)"/>
<path d="M0 0 C14.09677419 11.64516129 14.09677419 11.64516129 19 19 C19.125 22.1875 19.125 22.1875 19 25 C15.7778752 23.61308541 13.96645599 22.07563327 11.75 19.375 C9.19211755 16.30665077 6.51858516 13.62152068 3.5625 10.9375 C0.15136921 7.6183843 0.15136921 7.6183843 -0.50390625 4.94140625 C-0.5 3 -0.5 3 0 0 Z " fill="#F7FAF8" transform="translate(25,31)"/>
<path d="M0 0 C0.99 0.33 1.98 0.66 3 1 C2.48628707 5.13617422 1.42346491 7.07464469 -1.52734375 9.98828125 C-2.23697266 10.69404297 -2.94660156 11.39980469 -3.67773438 12.12695312 C-4.42345703 12.84818359 -5.16917969 13.56941406 -5.9375 14.3125 C-6.67935547 15.05306641 -7.42121094 15.79363281 -8.18554688 16.55664062 C-13.71921083 22 -13.71921083 22 -16 22 C-16.5 19.5234375 -16.5 19.5234375 -16 16 C-13.65293591 12.8782214 -10.8486286 10.28596557 -8 7.625 C-7.236875 6.88894531 -6.47375 6.15289062 -5.6875 5.39453125 C-3.80445613 3.58210152 -1.90888041 1.78513318 0 0 Z " fill="#FBFCFC" transform="translate(63,24)"/>
<path d="M0 0 C2.5 0.25 2.5 0.25 4.5 2.25 C4.6953125 5.0703125 4.6953125 5.0703125 4.625 8.375 C4.60695312 9.47070312 4.58890625 10.56640625 4.5703125 11.6953125 C4.54710937 12.53835937 4.52390625 13.38140625 4.5 14.25 C1.125 14.875 1.125 14.875 -2.5 15.25 C-4.5 13.25 -4.5 13.25 -4.765625 10.71875 C-4.76046875 9.7390625 -4.7553125 8.759375 -4.75 7.75 C-4.75515625 6.7703125 -4.7603125 5.790625 -4.765625 4.78125 C-4.39762983 1.27447248 -3.51646525 0.35164653 0 0 Z " fill="#F4F6F7" transform="translate(140.5,40.75)"/>
<path d="M0 0 C1.05767578 1.07121094 1.05767578 1.07121094 2.13671875 2.1640625 C4.01669445 4.04868012 5.92769197 5.84881937 7.89453125 7.6484375 C9.33892578 8.99808594 9.33892578 8.99808594 10.8125 10.375 C11.31458984 10.8184375 11.81667969 11.261875 12.33398438 11.71875 C15.24743021 14.49346032 15.98118579 15.77649622 16.32421875 19.8515625 C16.21722656 20.89054687 16.11023438 21.92953125 16 23 C9.29178945 17.63343156 3.71193855 11.38332373 -2 5 C-1.34 3.35 -0.68 1.7 0 0 Z " fill="#F9FCFA" transform="translate(28,23)"/>
<path d="M0 0 C6.8041755 5.50124828 13.12900122 11.69350182 18 19 C13.63135375 19.43631923 11.58519478 19.40246012 7.91015625 16.875 C6.93740722 15.94055988 5.98830469 14.9809713 5.0625 14 C4.57740967 13.50395264 4.09231934 13.00790527 3.5925293 12.49682617 C0.88800112 9.54517892 -0.71664846 7.37142356 -0.6875 3.3125 C-0.460625 2.219375 -0.23375 1.12625 0 0 Z " fill="#F9FBFA" transform="translate(25,41)"/>
<path d="M0 0 C0.45198721 4.41514339 0.41809925 6.41153647 -2.1953125 10.08984375 C-3.15368162 11.05742795 -4.13098328 12.00657502 -5.125 12.9375 C-5.8365625 13.67709961 -5.8365625 13.67709961 -6.5625 14.43164062 C-9.19605431 16.99757665 -10.66740752 17.96874711 -14.3671875 18.31640625 C-15.23601563 18.21199219 -16.10484375 18.10757813 -17 18 C-15.64526876 14.97328771 -14.1260408 12.87863194 -11.77734375 10.546875 C-11.15666016 9.928125 -10.53597656 9.309375 -9.89648438 8.671875 C-9.25001953 8.03765625 -8.60355469 7.4034375 -7.9375 6.75 C-7.28716797 6.1003125 -6.63683594 5.450625 -5.96679688 4.78125 C-1.14034598 0 -1.14034598 0 0 0 Z " fill="#F5F9F7" transform="translate(67,42)"/>
<path d="M0 0 C0.68310547 1.78417969 0.68310547 1.78417969 1 4 C-0.15576172 5.73925781 -0.15576172 5.73925781 -1.9296875 7.453125 C-2.56003906 8.071875 -3.19039062 8.690625 -3.83984375 9.328125 C-4.51144531 9.96234375 -5.18304688 10.5965625 -5.875 11.25 C-6.53886719 11.8996875 -7.20273437 12.549375 -7.88671875 13.21875 C-12.81863839 18 -12.81863839 18 -14 18 C-14.47593502 13.51501233 -14.44075562 11.59191459 -11.69921875 7.91015625 C-10.71310093 6.94247054 -9.70846705 5.99334385 -8.6875 5.0625 C-8.18798828 4.56943359 -7.68847656 4.07636719 -7.17382812 3.56835938 C-3.4371966 0 -3.4371966 0 0 0 Z " fill="#F9FCFA" transform="translate(61,18)"/>
<path d="M0 0 C8.58 0 17.16 0 26 0 C21.90068078 4.09931922 18.89497656 5.12113985 13.1875 5.375 C7.88521987 5.29550555 4.52217225 3.67980578 0 1 C0 0.67 0 0.34 0 0 Z " fill="#F9FBFA" transform="translate(33,71)"/>
<path d="M0 0 C3.50825087 1.48547559 5.68258106 3.45436604 8.25 6.25 C8.95640625 6.99765625 9.6628125 7.7453125 10.390625 8.515625 C12.35907908 11.55430654 12.30801932 13.44751055 12 17 C7.08064098 12.88380164 2.47352044 8.59589638 -2 4 C-1.34 2.68 -0.68 1.36 0 0 Z " fill="#F9FCFA" transform="translate(32,18)"/>
<path d="M0 0 C2.64 0.33 5.28 0.66 8 1 C8.70703125 2.765625 8.70703125 2.765625 9 5 C7.63671875 6.921875 7.63671875 6.921875 5.6875 8.75 C4.73423828 9.67039062 4.73423828 9.67039062 3.76171875 10.609375 C2 12 2 12 0 12 C0 8.04 0 4.08 0 0 Z " fill="#F6FAF8" transform="translate(47,13)"/>
<path d="M0 0 C0 3.96 0 7.92 0 12 C-7.23214286 6.10714286 -7.23214286 6.10714286 -9 2 C-5.62902617 0.50178941 -3.79557881 0 0 0 Z " fill="#F7FAF8" transform="translate(44,13)"/>
<path d="M0 0 C0 0.33 0 0.66 0 1 C-1.65 1 -3.3 1 -5 1 C-5 5.95 -5 10.9 -5 16 C-5.66 15.67 -6.32 15.34 -7 15 C-6.67 11.04 -6.34 7.08 -6 3 C-8.64 3.66 -11.28 4.32 -14 5 C-14 4.01 -14 3.02 -14 2 C-9.35150485 -0.3992233 -5.08913926 -0.19957409 0 0 Z " fill="#96C3A7" transform="translate(50,10)"/>
<path d="M0 0 C-0.875 4.875 -0.875 4.875 -2 6 C-3.66617115 6.04063832 -5.33388095 6.042721 -7 6 C-7.33 4.35 -7.66 2.7 -8 1 C-5.29120665 -0.35439668 -2.99066732 -0.06501451 0 0 Z " fill="#F4F6F7" transform="translate(170,50)"/>
<path d="M0 0 C1.2065625 0.0309375 1.2065625 0.0309375 2.4375 0.0625 C2.7675 1.7125 3.0975 3.3625 3.4375 5.0625 C1.4575 5.3925 -0.5225 5.7225 -2.5625 6.0625 C-2.94468767 4.40635343 -3.27645102 2.73792976 -3.5625 1.0625 C-2.5625 0.0625 -2.5625 0.0625 0 0 Z " fill="#335564" transform="translate(211.5625,26.9375)"/>
<path d="M0 0 C0.33 0 0.66 0 1 0 C1 2.31 1 4.62 1 7 C-1.31 7 -3.62 7 -6 7 C-5.02433888 5.83040013 -4.044375 4.66438823 -3.0625 3.5 C-2.51722656 2.8503125 -1.97195312 2.200625 -1.41015625 1.53125 C-0.71212891 0.77328125 -0.71212891 0.77328125 0 0 Z " fill="#FAFCFB" transform="translate(66,53)"/>
<path d="M0 0 C1.16959987 0.97566112 2.33561177 1.955625 3.5 2.9375 C4.1496875 3.48277344 4.799375 4.02804688 5.46875 4.58984375 C5.9740625 5.05519531 6.479375 5.52054688 7 6 C7 6.33 7 6.66 7 7 C4.69 7 2.38 7 0 7 C0 4.69 0 2.38 0 0 Z " fill="#FAFCFB" transform="translate(25,53)"/>
<path d="M0 0 C-0.33 0.66 -0.66 1.32 -1 2 C-3.97 1.505 -3.97 1.505 -7 1 C-6.67 5.29 -6.34 9.58 -6 14 C-6.66 14 -7.32 14 -8 14 C-8 9.38 -8 4.76 -8 0 C-4.29847322 -0.92538169 -3.36541838 -1.08174162 0 0 Z " fill="#9AC6AB" transform="translate(54,12)"/>
<path d="M0 0 C0.66 1.32 1.32 2.64 2 4 C2.97581759 5.35113205 3.97029741 6.68946944 5 8 C3.68 8 2.36 8 1 8 C1 10.64 1 13.28 1 16 C0.67 16 0.34 16 0 16 C0 10.72 0 5.44 0 0 Z " fill="#7FB694" transform="translate(23,33)"/>
<path d="M0 0 C0.66 0 1.32 0 2 0 C2.103125 0.7425 2.20625 1.485 2.3125 2.25 C3.04253504 5.17014018 4.06789398 6.73187554 6 9 C4.125 8.75 4.125 8.75 2 8 C0.875 6 0.875 6 0 4 C-0.66 3.67 -1.32 3.34 -2 3 C-1.34 2.01 -0.68 1.02 0 0 Z " fill="#82B896" transform="translate(34,13)"/>
<path d="M0 0 C2 1 2 1 3 3 C-0.465 4.485 -0.465 4.485 -4 6 C-2.84826645 3.53199953 -1.95216435 1.95216435 0 0 Z " fill="#94C2A5" transform="translate(31,15)"/>
</svg>
